<mxfile host="app.diagrams.net" agent="Mozilla/5.0 (Windows NT 10.0; Win64; x64) AppleWebKit/537.36 (KHTML, like Gecko) Chrome/128.0.0.0 Safari/537.36" version="24.7.12">
  <diagram name="Page-1" id="TPGUM6L34mCoDnPinGrk">
    <mxGraphModel dx="1050" dy="565" grid="0" gridSize="10" guides="1" tooltips="1" connect="1" arrows="1" fold="1" page="1" pageScale="1" pageWidth="827" pageHeight="1169" background="none" math="0" shadow="0">
      <root>
        <mxCell id="0" />
        <mxCell id="1" parent="0" />
        <mxCell id="mFt8jnvkjNyD6lXSa_r2-1" value="&lt;h2&gt;&lt;b&gt;&lt;u&gt;&lt;font style=&quot;font-size: 14px;&quot;&gt;Reversal strategy&lt;/font&gt;&lt;/u&gt;&lt;/b&gt;&lt;/h2&gt;&lt;div&gt;signal from MACD, heading to SuperTrend&lt;br&gt;&lt;span style=&quot;font-style: italic; font-weight: 600;&quot; class=&quot;notion-enable-hover&quot; data-token-index=&quot;1&quot;&gt;tp &amp;amp; sl management&lt;/span&gt;:&lt;br&gt;-&amp;nbsp;&lt;span style=&quot;color: inherit; border-bottom: 0.05em solid; overflow-wrap: break-word;&quot; class=&quot;notion-enable-hover&quot; data-token-index=&quot;3&quot;&gt;tp&lt;/span&gt;: SuperTrend - half of ATR&lt;br&gt;-&amp;nbsp;&lt;span style=&quot;color: inherit; border-bottom: 0.05em solid; overflow-wrap: break-word;&quot; class=&quot;notion-enable-hover&quot; data-token-index=&quot;5&quot;&gt;sl&lt;/span&gt;: previous extremum + half of ATR&amp;nbsp;&lt;/div&gt;" style="rounded=1;whiteSpace=wrap;html=1;align=left;" vertex="1" parent="1">
          <mxGeometry x="80" y="80" width="232" height="145" as="geometry" />
        </mxCell>
        <mxCell id="mFt8jnvkjNyD6lXSa_r2-4" value="&lt;h2 style=&quot;&quot;&gt;&lt;b style=&quot;background-color: initial;&quot;&gt;&lt;u&gt;&lt;font style=&quot;font-size: 14px;&quot;&gt;Following strategy&lt;/font&gt;&lt;/u&gt;&lt;/b&gt;&lt;/h2&gt;&lt;div&gt;&lt;div style=&quot;&quot;&gt;&lt;span style=&quot;background-color: initial;&quot;&gt;signal from MACD, heading against SuperTrend&lt;/span&gt;&lt;/div&gt;&lt;span style=&quot;background-color: initial;&quot;&gt;&lt;div style=&quot;&quot;&gt;&lt;span style=&quot;background-color: initial;&quot;&gt;tp &amp;amp; sl management:&lt;/span&gt;&lt;span style=&quot;background-color: initial;&quot;&gt;&amp;nbsp;&lt;/span&gt;&lt;/div&gt;&lt;div style=&quot;&quot;&gt;-&amp;nbsp;&lt;span style=&quot;color: inherit; border-bottom: 0.05em solid; overflow-wrap: break-word;&quot; class=&quot;notion-enable-hover&quot; data-token-index=&quot;3&quot;&gt;tp&lt;/span&gt;: distance from close price to SuperTrend in opposite direction&lt;br&gt;-&amp;nbsp;&lt;span style=&quot;color: inherit; border-bottom: 0.05em solid; overflow-wrap: break-word;&quot; class=&quot;notion-enable-hover&quot; data-token-index=&quot;5&quot;&gt;sl&lt;/span&gt;: SuperTrend + half of ATR&lt;span style=&quot;background-color: initial;&quot;&gt;&lt;br&gt;&lt;/span&gt;&lt;/div&gt;&lt;/span&gt;&lt;/div&gt;" style="rounded=1;whiteSpace=wrap;html=1;align=left;" vertex="1" parent="1">
          <mxGeometry x="376" y="82.5" width="259" height="140" as="geometry" />
        </mxCell>
      </root>
    </mxGraphModel>
  </diagram>
</mxfile>
